<svg enable-background="new 0 0 40 40" viewBox="0 0 40 40">
	<path d="m5.625 11.75c-3.268-4.438 2.049-9.66 5.875-6.312 2.875 2.563 5.523 4.944 7.884 7.771 1.08 1.293 2.117 1.319 3.215 0.013 2.372-2.825 4.79-5.083 7.398-8.221 1.44-1 2.878-0.938 4.69 0.188 1.754 2.063 3.726 4.475 0.995 7.256-2.668 2.718-7.146 5.307-7.438 8.285-0.349 3.55 4.843 5.724 7.391 8.717 1.776 2.087 2.133 4.182 0.139 6.162-1.939 1.927-4.144 1.877-6.229 0.064-0.627-0.544-1.195-1.154-1.788-1.736-6.781-6.657-6.914-6.785-13.427-0.026-3.049 3.162-5.823 4.081-9.33 1.085-1.625-2.433 0.201-3.675 0.938-4.996 2.963-2.733 4.674-5.275 7.614-7.765 0.923-0.783 0.934-1.706-0.012-2.497-2.951-2.467-5.838-5.869-7.915-7.988z" clip-rule="evenodd" fill="#EA0F0F" fill-rule="evenodd"/>
</svg>
